<svg width="44" height="44" viewBox="0 0 44 44" fill="none" xmlns="http://www.w3.org/2000/svg">
<g filter="url(#filter0_d_8540_20865)">
<path d="M2 9C2 4.58172 5.58172 1 10 1H34C38.4183 1 42 4.58172 42 9V33C42 37.4183 38.4183 41 34 41H10C5.58172 41 2 37.4183 2 33V9Z" fill="white" shape-rendering="crispEdges"/>
<path d="M2.5 9C2.5 4.85786 5.85786 1.5 10 1.5H34C38.1421 1.5 41.5 4.85786 41.5 9V33C41.5 37.1421 38.1421 40.5 34 40.5H10C5.85786 40.5 2.5 37.1421 2.5 33V9Z" stroke="#EAECF0" shape-rendering="crispEdges"/>
<g clip-path="url(#clip0_8540_20865)">
<path d="M20.4174 14.3332C21.4695 13.3022 22.9104 12.6665 24.4998 12.6665C27.7215 12.6665 30.3332 15.2782 30.3332 18.4998C30.3332 20.0893 29.6975 21.5303 28.6665 22.5824M18.2498 21.8332L19.4998 20.9998V25.5832M18.2498 25.5832H20.7498M25.3332 23.4998C25.3332 26.7215 22.7215 29.3332 19.4998 29.3332C16.2782 29.3332 13.6665 26.7215 13.6665 23.4998C13.6665 20.2782 16.2782 17.6665 19.4998 17.6665C22.7215 17.6665 25.3332 20.2782 25.3332 23.4998Z" stroke="#344054" stroke-width="1.66667" stroke-linecap="round" stroke-linejoin="round"/>
</g>
</g>
<defs>
<filter id="filter0_d_8540_20865" x="0" y="0" width="44" height="44" filterUnits="userSpaceOnUse" color-interpolation-filters="sRGB">
<feFlood flood-opacity="0" result="BackgroundImageFix"/>
<feColorMatrix in="SourceAlpha" type="matrix" values="0 0 0 0 0 0 0 0 0 0 0 0 0 0 0 0 0 0 127 0" result="hardAlpha"/>
<feOffset dy="1"/>
<feGaussianBlur stdDeviation="1"/>
<feComposite in2="hardAlpha" operator="out"/>
<feColorMatrix type="matrix" values="0 0 0 0 0.0627451 0 0 0 0 0.0941176 0 0 0 0 0.156863 0 0 0 0.05 0"/>
<feBlend mode="normal" in2="BackgroundImageFix" result="effect1_dropShadow_8540_20865"/>
<feBlend mode="normal" in="SourceGraphic" in2="effect1_dropShadow_8540_20865" result="shape"/>
</filter>
<clipPath id="clip0_8540_20865">
<rect width="20" height="20" fill="white" transform="translate(12 11)"/>
</clipPath>
</defs>
</svg>
