<svg width="133" height="111" viewBox="0 0 133 111" fill="none" xmlns="http://www.w3.org/2000/svg">
<path fill-rule="evenodd" clip-rule="evenodd" d="M12.0296 4.316C12.4208 4.0621 12.9787 3.9643 13.3862 4.0765L31.2625 8.9954L38.0829 2.7938C38.4201 2.4709 38.8001 2.1982 39.1687 1.9349L39.2709 1.8615C40.0646 1.2923 40.9385 0.892939 41.7316 0.738089C42.6626 0.556899 43.4481 0.71489 44.0042 1.1945C44.0167 1.2058 44.0274 1.2183 44.0368 1.2315C44.4637 1.8296 44.5477 2.6258 44.2794 3.5354C44.0512 4.311 43.5729 5.1435 42.9315 5.8808L42.8481 5.9767L42.8413 5.98449L42.8413 5.98453C42.5469 6.32321 42.2423 6.67363 41.8921 6.976L35.0799 13.1864L38.3111 31.4401C38.385 31.857 38.2339 32.403 37.9456 32.7679C37.9336 32.7842 37.9004 32.8249 36.7556 33.8782C36.5864 34.0349 36.397 34.1139 36.2071 34.107C36.0403 34.1001 35.8892 34.0261 35.7695 33.8957C35.6986 33.818 35.6416 33.7221 35.6002 33.6099L35.5977 33.6061L29.9253 17.5667L19.8561 26.1155L20.4975 31.4513C20.5389 31.7993 20.4442 32.2312 20.2511 32.5773C20.1721 32.7165 20.085 32.8318 19.9884 32.9227C19.8342 33.0663 19.6568 33.1384 19.4762 33.1309C19.3088 33.124 19.1502 33.0462 19.028 32.9127C18.9502 32.8281 18.8882 32.7228 18.8443 32.5999C18.8443 32.5999 18.1707 30.7816 17.5215 29.1182C15.3451 31.3732 13.4028 33.8425 11.7242 36.4944C9.7457 39.6177 8.14319 42.9868 6.96519 46.5058C4.60989 53.5418 3.94719 61.1872 5.10139 68.5687C5.67559 72.26 6.70069 75.8881 8.14759 79.3475C9.59209 82.8081 11.4578 86.1001 13.6897 89.1319C15.9209 92.163 18.5183 94.933 21.4128 97.359C24.3067 99.785 27.4965 101.868 30.8957 103.541C34.2943 105.213 37.9017 106.476 41.6156 107.292C45.3295 108.109 49.149 108.486 52.962 108.409C56.777 108.331 60.588 107.793 64.285 106.803C67.982 105.813 71.565 104.374 74.931 102.527C81.669 98.837 87.528 93.501 91.836 87.0794C92.1764 86.5729 92.5071 86.0599 92.8281 85.5405C90.445 85.9275 88.0395 86.3827 85.634 86.88C82.668 87.4875 79.699 88.1521 76.765 88.8116C73.832 89.4711 70.931 90.1212 68.106 90.7087C65.282 91.299 62.531 91.818 59.906 92.245C59.577 92.299 59.251 92.351 58.927 92.402C58.793 92.4218 58.6593 92.4419 58.5259 92.4619C58.3368 92.4902 58.1482 92.5184 57.96 92.546C57.8156 92.567 57.6719 92.5883 57.5287 92.6095L57.5249 92.6101L57.5222 92.6104C57.0329 92.6829 56.5499 92.7545 56.068 92.81C55.8451 92.8368 55.6244 92.8647 55.4052 92.8925L55.4016 92.893L55.4002 92.8931C55.0076 92.9429 54.6195 92.992 54.231 93.033C54.0881 93.0486 53.9459 93.0643 53.8043 93.0799C53.3465 93.1305 52.8955 93.1802 52.451 93.223L51.8689 93.2704C51.4957 93.3007 51.1277 93.3307 50.765 93.361C50.6984 93.3668 50.632 93.3722 50.5657 93.3776L50.5647 93.3776C50.5302 93.3804 50.4957 93.3832 50.4612 93.3861C50.4261 93.3889 50.391 93.3919 50.356 93.395L50.294 93.4L50.243 93.404L50.139 93.411C50.0751 93.4148 50.0113 93.4194 49.9466 93.4241L49.934 93.425C49.662 93.445 49.393 93.458 49.125 93.47C48.0579 93.52 47.0417 93.549 46.085 93.529C45.1283 93.507 44.233 93.458 43.4086 93.372C42.5848 93.286 41.8319 93.172 41.1592 93.04C40.9214 92.9927 40.6939 92.9418 40.4761 92.8932L40.4757 92.8931L40.4756 92.8931C40.3852 92.8729 40.2965 92.853 40.2094 92.834C39.9426 92.7614 39.6913 92.6938 39.4554 92.6303L39.4478 92.6282L39.3837 92.611C39.2317 92.5648 39.087 92.5197 38.9491 92.4767L38.9479 92.4763C38.8565 92.4478 38.7681 92.4203 38.6828 92.394C38.532 92.3431 38.3919 92.2911 38.2624 92.2431C38.2089 92.2233 38.1572 92.2041 38.1073 92.186C38.0531 92.167 38.0011 92.1481 37.9512 92.1299L37.9485 92.1289L37.8659 92.099C37.8259 92.0834 37.7879 92.067 37.7514 92.0513L37.751 92.0511L37.7508 92.051C37.7323 92.043 37.7142 92.0352 37.6965 92.0278C37.6843 92.0226 37.6722 92.0177 37.6603 92.013C37.533 91.958 37.4265 91.913 37.3399 91.877C37.1682 91.803 37.0798 91.766 37.0798 91.766C37.0798 91.766 37.1744 91.781 37.3594 91.811C37.4509 91.827 37.5656 91.846 37.7017 91.868C37.8377 91.894 37.9957 91.916 38.1731 91.937C38.8803 92.037 39.9279 92.144 41.2495 92.151L41.4372 92.1502L41.4438 92.1501H41.4439H41.4439C41.7159 92.1491 41.9985 92.1481 42.2921 92.136C42.3285 92.1344 42.365 92.1331 42.4016 92.1319C42.4281 92.1311 42.4548 92.1303 42.4815 92.1296L42.5227 92.1284H42.5228C42.6308 92.1254 42.74 92.1224 42.8506 92.116C43.0406 92.104 43.235 92.092 43.4331 92.08C44.2249 92.018 45.0781 91.941 45.9865 91.815C46.8943 91.683 47.8586 91.532 48.8723 91.334L49.094 91.2902C49.2751 91.2544 49.4575 91.2182 49.642 91.182C49.707 91.169 49.772 91.157 49.838 91.144L49.985 91.116C49.971 91.116 49.996 91.112 50 91.111L50.024 91.106C50.1133 91.088 50.2027 91.0691 50.292 91.0502L50.426 91.022C50.9166 90.9171 51.4179 90.8116 51.9285 90.7042L51.9318 90.7035L52.08 90.6723C52.5112 90.5711 52.9491 90.4741 53.3937 90.3757L53.772 90.2918C54.1513 90.2081 54.5376 90.1154 54.9282 90.0216L54.9287 90.0215L54.929 90.0214L54.9325 90.0205L54.9342 90.0201C55.1328 89.9725 55.3325 89.9245 55.533 89.8774L56.1087 89.7377L56.1138 89.7364C56.2669 89.6993 56.4207 89.6619 56.5752 89.6244C56.8326 89.562 57.0918 89.4992 57.353 89.436L57.7834 89.3302L58.284 89.2072C58.3855 89.1809 58.4873 89.1547 58.5892 89.1285C58.6803 89.1052 58.7716 89.0818 58.8631 89.0584C58.984 89.0275 59.1053 88.9965 59.227 88.9652L59.6912 88.8457L59.6977 88.844C60.1776 88.7205 60.6623 88.5958 61.151 88.4693C61.801 88.3019 62.458 88.1307 63.122 87.9514C64.452 87.5935 65.811 87.2286 67.192 86.8587L67.6355 86.7392L67.6369 86.7388C70.2649 86.0304 72.9802 85.2986 75.76 84.5942C78.695 83.8488 81.7 83.1297 84.738 82.5034C87.777 81.8778 90.85 81.3493 93.906 80.9769C94.4043 80.916 94.9022 80.8593 95.3993 80.8071C96.025 79.4838 96.5909 78.1311 97.094 76.7545C97.135 76.6424 97.1756 76.5301 97.2157 76.4176C97.1521 76.4225 97.0884 76.4273 97.0248 76.4322L97.024 76.4322C96.8125 76.4483 96.6011 76.4645 96.39 76.4793C96.0434 76.5003 95.6968 76.5359 95.3503 76.5715L95.3498 76.5716L95.211 76.5858L94.034 76.7012C93.7894 76.7271 93.5445 76.7579 93.2996 76.7887L93.2992 76.7887L93.2988 76.7888L93.2984 76.7888C93.1522 76.8072 93.006 76.8256 92.86 76.8429C92.7129 76.8617 92.5658 76.8795 92.4188 76.8974C92.174 76.9271 91.9293 76.9567 91.685 76.9908L90.512 77.1601L90.3623 77.1817C90.022 77.2307 89.6811 77.2798 89.341 77.3388C86.219 77.841 83.112 78.4742 80.012 79.1914C79.5149 79.3033 79.017 79.4222 78.5191 79.5411L78.5151 79.5421C78.239 79.608 77.963 79.674 77.687 79.7387L75.364 80.3148C73.815 80.7054 72.266 81.106 70.713 81.516L66.048 82.7467C64.488 83.1561 62.924 83.5661 61.354 83.9679L58.993 84.5604L56.62 85.1346C55.032 85.5045 53.439 85.8656 51.833 86.1979L50.628 86.4468L49.416 86.6769C49.3354 86.6919 49.255 86.7071 49.1748 86.7225L49.0058 86.755C48.7397 86.8063 48.4735 86.8576 48.1996 86.9032L46.9664 87.1176L46.3495 87.2248L45.7514 87.3176L44.5571 87.5007L44.2587 87.5458L43.9202 87.5935L43.2964 87.6781L43.1096 87.7014C42.7531 87.7459 42.3964 87.7904 42.0356 87.8273C41.7248 87.8639 41.4099 87.8926 41.0949 87.9213H41.0948H41.0947H41.0946C40.9834 87.9315 40.8722 87.9416 40.7611 87.9521C40.6447 87.9604 40.5285 87.9693 40.4122 87.9782L40.4117 87.9783L40.4111 87.9783C40.0982 88.0023 39.7853 88.0263 39.4684 88.0386C39.0921 88.0615 38.7111 88.0716 38.3303 88.0817L38.1612 88.0862C38.0081 88.0893 37.8542 88.0896 37.7003 88.09H37.699L37.5936 88.0902L37.5004 88.0906H37.17L36.8371 88.0818C35.9507 88.0687 35.0529 88.006 34.1514 87.9032L33.9903 87.8842L33.9899 87.8842C33.8182 87.8641 33.6466 87.844 33.4743 87.8192L32.796 87.7107C32.6423 87.6886 32.4887 87.6572 32.3351 87.6258L32.3349 87.6258L32.3347 87.6257C32.2621 87.6109 32.1896 87.5961 32.117 87.5822L31.7778 87.5132C31.7227 87.5026 31.6631 87.4888 31.6017 87.4743L31.4211 87.4298L30.7014 87.2512L30.1208 87.0831L29.9754 87.0405L29.9397 87.0299C29.9422 87.0311 29.7936 86.9847 29.8362 86.9972L29.7522 86.9678L29.4168 86.8505L28.7472 86.6136C28.5926 86.5629 28.4444 86.498 28.2962 86.4331L28.2961 86.4331C28.2281 86.4034 28.1601 86.3736 28.0915 86.3452L27.442 86.0638L27.2802 85.9917L27.1229 85.9114L26.8088 85.7509L26.1819 85.4262C24.5349 84.5177 23.0209 83.3962 21.6749 82.1041C20.3288 80.812 19.1552 79.3462 18.1791 77.7544L17.8268 77.1476L17.6519 76.8441L17.5647 76.6918L17.4857 76.5344L17.1729 75.9062C17.1457 75.8501 17.1179 75.7943 17.0901 75.7386L17.0899 75.7382L17.0897 75.7378C17.013 75.584 16.9363 75.4303 16.8738 75.2699L16.6024 74.6198C16.5835 74.5733 16.5645 74.5274 16.5454 74.4815C16.4748 74.3111 16.4043 74.1409 16.3416 73.9458L16.099 73.2268L15.9798 72.8675L15.975 72.8526L15.9695 72.8359L15.9662 72.826C15.9607 72.8096 15.9556 72.7938 15.9529 72.7816L15.9328 72.7077L15.8939 72.5622L15.7385 71.9773L15.6614 71.6845L15.6269 71.5491L15.6012 71.4187L15.5667 71.2457L15.4313 70.551L15.3654 70.2043L15.3197 69.8545L15.2319 69.1549C15.2271 69.1126 15.222 69.0704 15.2168 69.0284C15.2077 68.9538 15.1986 68.8795 15.1918 68.805L15.1711 68.4546L15.131 67.7524C15.1294 67.71 15.1268 67.6675 15.1242 67.6251L15.1242 67.625L15.1242 67.6249L15.1242 67.6249C15.1197 67.5506 15.1151 67.4764 15.1159 67.4026L15.1178 67.0528C15.1103 65.1839 15.3404 63.3275 15.8037 61.5358C16.2651 59.7434 16.9453 58.0106 17.8387 56.3893L18.1766 55.7837L18.5484 55.1969C18.5872 55.1366 18.6255 55.0762 18.6638 55.0157C18.7495 54.8807 18.835 54.7458 18.9251 54.6132L19.3345 54.0509L19.5395 53.7694L19.6944 53.56L19.754 53.4879L20.2298 52.9161L20.4699 52.6321L20.5122 52.5823L20.5122 52.5822C20.5787 52.5038 20.6457 52.4247 20.6994 52.372L21.1181 51.9362L21.3275 51.7181L21.4329 51.6096C21.4272 51.6146 21.5708 51.4654 21.5257 51.5149L21.5576 51.4861L21.6216 51.4266L22.1363 50.9557L22.3939 50.7219C22.3981 50.7182 22.4023 50.7145 22.4064 50.7107C22.4124 50.7054 22.4184 50.6999 22.4244 50.6945L22.4435 50.6771L22.4437 50.6769C22.4702 50.6528 22.4967 50.6287 22.5237 50.6059L22.6591 50.4968L23.2014 50.0636C23.4776 49.8323 23.7719 49.6282 24.0664 49.424L24.0665 49.4239C24.1511 49.3653 24.2357 49.3066 24.3199 49.2473C24.6027 49.0398 24.9029 48.8596 25.2024 48.6798C25.2965 48.6233 25.3906 48.5668 25.4841 48.5095C27.0683 47.5797 28.7598 46.8613 30.5064 46.3578C32.2543 45.8588 34.0592 45.5754 35.8723 45.5215C37.1581 45.4858 38.449 45.566 39.7223 45.7666L40.6746 44.4651L41.7278 43.2038L42.8532 42.0145L44.0449 40.8985L45.2994 39.861L46.6097 38.9018L47.972 38.0241L49.381 37.231L50.833 36.5238L52.322 35.9076L53.843 35.3809L55.391 34.9509L56.961 34.6186C57.507 34.5358 58.051 34.4543 58.594 34.3797L60.143 34.26L61.739 34.238L63.327 34.317L63.7038 34.3594L63.7046 34.3595L63.7049 34.3595L63.7053 34.3596C64.1047 34.4044 64.5032 34.4491 64.9 34.4982L66.455 34.7785L67.982 35.1515L69.481 35.6135L70.943 36.1665L72.364 36.8053L73.742 37.5219L75.068 38.3225L76.34 39.1977L77.551 40.1468L78.697 41.1675L79.77 42.2552L80.77 43.4088L81.678 44.6194L80.595 43.5642L79.463 42.5843L78.277 41.6753L77.045 40.8415L75.771 40.0829L74.462 39.4008L73.12 38.7983L71.753 38.2723L70.361 37.8285L68.952 37.4674L67.53 37.1846L66.098 36.9878L64.664 36.878C64.3113 36.8743 63.9596 36.8669 63.6086 36.8595H63.6084H63.6082H63.6079L63.604 36.8594C63.5451 36.8581 63.4863 36.8569 63.4275 36.8557C63.3623 36.8543 63.2971 36.853 63.232 36.8517L61.807 36.9131L60.4375 37.0597C60.4328 37.0604 60.4201 37.062 60.428 37.0611L60.417 37.063L60.393 37.0674L60.347 37.0749L60.254 37.0906L59.696 37.1859L58.953 37.3112C58.508 37.4235 58.066 37.5275 57.624 37.631L56.273 38.0391L54.952 38.5275L53.662 39.0911L52.411 39.7287L51.199 40.4359L50.034 41.2095L48.9162 42.0471L47.851 42.9461L46.8436 43.9015L45.8956 44.9115L45.0123 45.9716L44.1973 47.0788L43.4544 48.2305L42.7886 49.421L41.9955 50.8385L40.3222 50.5369C38.9392 50.2887 37.5211 50.2235 36.1162 50.3382C34.7112 50.4511 33.3188 50.7382 31.9878 51.1883C30.6556 51.6347 29.3823 52.2428 28.2162 52.9951C28.1236 53.0585 28.0296 53.1198 27.9356 53.181C27.7387 53.3092 27.5421 53.4372 27.3605 53.5844C27.2898 53.6384 27.2184 53.6915 27.147 53.7447C26.9416 53.8975 26.7361 54.0504 26.5486 54.2239L26.1574 54.5593L26.0596 54.6427C26.0283 54.6715 25.9988 54.7029 25.9681 54.733L25.7856 54.9123L25.4195 55.2721L25.3731 55.3166L25.3694 55.3204L25.2891 55.4101L25.0866 55.6358L24.6829 56.0853C24.6222 56.1489 24.5855 56.1984 24.5492 56.2475L24.5396 56.2605L24.5205 56.2859L24.3788 56.4708L24.0923 56.8388L24.0559 56.884L24.0202 56.9373L23.9481 57.0438L23.8033 57.2564L23.513 57.6808C23.4575 57.768 23.4052 57.8576 23.3529 57.947C23.3184 58.0061 23.2839 58.0651 23.2485 58.1234L22.9845 58.5654L22.7494 59.0256C22.1212 60.25 21.6423 61.5552 21.3351 62.8975C21.0285 64.2385 20.8793 65.6133 20.915 66.9731L20.9169 67.2283C20.9165 67.2816 20.9214 67.3352 20.9263 67.3888C20.9291 67.4197 20.932 67.4506 20.9338 67.4816L20.9733 67.9881L20.9921 68.242C20.9975 68.2935 21.0054 68.345 21.0132 68.3966C21.0164 68.4172 21.0195 68.4379 21.0225 68.4586L21.0272 68.4922L21.0981 68.9925L21.1319 69.2432L21.1846 69.489L21.288 69.9811L21.3131 70.1046L21.3257 70.1661L21.3269 70.1705L21.399 70.4263L21.562 71.0099L21.6034 71.1548L21.6235 71.2275C21.6281 71.2454 21.6328 71.2566 21.6375 71.2678L21.6416 71.2779L21.6441 71.2845L21.7238 71.4971L21.878 71.9221C21.9103 72.0296 21.9635 72.1501 22.0169 72.2711L22.0399 72.3234L22.0617 72.3735L22.2623 72.8381C22.3025 72.9431 22.3549 73.0431 22.4073 73.143C22.4335 73.1929 22.4596 73.2427 22.4842 73.2932L22.7137 73.7459L22.7701 73.8593L22.8353 73.969L22.9651 74.1878L23.224 74.6261C23.9418 75.7796 24.8145 76.841 25.7975 77.7808C26.7818 78.7193 27.884 79.5293 29.0626 80.1744L29.5102 80.4038L29.8437 80.5788L29.9591 80.6283L30.418 80.8283C30.4727 80.8506 30.5268 80.875 30.5808 80.8993L30.5811 80.8994C30.6791 80.9437 30.7772 80.988 30.8794 81.0195L31.349 81.1862L31.5835 81.2709L31.6424 81.2922C31.6591 81.297 31.6633 81.2983 31.6609 81.2977L31.7916 81.3361L32.3715 81.5066L32.8254 81.6169L32.9376 81.6452C32.974 81.6546 33.0129 81.6633 33.0561 81.6715L33.3094 81.7223C33.3695 81.7339 33.4291 81.7467 33.4888 81.7595L33.4892 81.7596C33.5976 81.7829 33.7061 81.8062 33.8172 81.822L34.3319 81.9066C34.4408 81.9231 34.5504 81.9367 34.66 81.9503C34.7246 81.9583 34.7891 81.9663 34.8535 81.9749C35.5519 82.0608 36.2622 82.1179 36.9876 82.1348L37.2584 82.1442L37.5324 82.1461C37.6006 82.1461 37.6687 82.1466 37.7368 82.1471H37.7377C37.8516 82.148 37.9656 82.1489 38.0803 82.1473C38.1585 82.1457 38.2368 82.1443 38.3151 82.1429C38.605 82.1377 38.8954 82.1326 39.1881 82.1172C39.4531 82.1082 39.7214 82.0918 39.9896 82.0754L39.9902 82.0754L39.9908 82.0753L39.9913 82.0753L40.1536 82.0654L40.3078 82.0564C40.4119 82.0479 40.5158 82.0399 40.6197 82.0318L40.6219 82.0317C40.8937 82.0106 41.1653 81.9896 41.4401 81.9611C41.739 81.9353 42.0403 81.9021 42.3418 81.8689L42.5811 81.8426L43.156 81.7731L43.4168 81.7417L43.7164 81.7003L44.9132 81.5342L45.5113 81.4527L46.0875 81.3643L47.2385 81.1875C47.4948 81.15 47.7567 81.1047 48.0184 81.0594L48.0186 81.0594L48.0187 81.0593L48.0189 81.0593C48.1469 81.0372 48.2749 81.015 48.4021 80.9938L49.569 80.7963L50.737 80.5813C52.295 80.3016 53.853 79.9882 55.413 79.6672L57.756 79.1763L60.101 78.6647L64.806 77.6209L69.538 76.5796C71.12 76.2373 72.711 75.9081 74.304 75.5859L76.702 75.1226C76.991 75.0709 77.2794 75.0179 77.5677 74.9648L77.5685 74.9647C78.0811 74.8703 78.5937 74.776 79.11 74.6894C82.329 74.1371 85.578 73.675 88.852 73.3804C91.9785 73.0905 95.1306 72.9711 98.2804 73.0523C98.6961 71.5494 99.0397 70.0254 99.3102 68.4874L99.334 68.1988L99.36 67.2339L99.329 66.2766L99.242 65.3281L99.1 64.3908C99.0543 64.1814 99.011 63.9717 98.9677 63.7625C98.9475 63.6648 98.9274 63.5673 98.907 63.4699L98.66 62.5665L98.366 61.68L98.022 60.8186C97.9161 60.5997 97.815 60.3803 97.7141 60.1612L97.631 59.981L97.195 59.1723C97.1479 59.0965 97.1005 59.0208 97.0531 58.945L97.0509 58.9415L97.0508 58.9414C96.9371 58.7595 96.8233 58.5777 96.713 58.3949L96.192 57.6501L95.625 56.9435C95.427 56.731 95.236 56.5185 95.046 56.3041L94.38 55.6514L93.7 55.0734C93.46 54.8966 93.223 54.7179 92.987 54.538L92.245 54.0477L91.473 53.6058C91.206 53.476 90.94 53.3462 90.677 53.212L89.861 52.8622L89.028 52.5632L88.178 52.3149C87.9601 52.2665 87.7428 52.2145 87.5264 52.1628L87.5256 52.1626L87.318 52.113L86.45 51.9601L85.575 51.861L84.699 51.8152H83.824L82.953 51.8717L82.091 51.9814L81.241 52.1475L80.152 52.36L79.554 51.3833L78.959 50.4116L78.306 49.4768L77.596 48.5822L76.836 47.7283L76.024 46.9202L75.169 46.1566C75.0805 46.0863 74.9919 46.0161 74.9032 45.946C74.6922 45.7791 74.4811 45.612 74.272 45.4425L73.336 44.7761L72.363 44.1648L71.355 43.6119L70.321 43.1091L69.258 42.669L68.17 42.2928L67.063 41.9743L65.981 41.7323L65.369 41.6383L65.063 41.5907L64.91 41.5662L64.834 41.5537L64.796 41.5474L64.776 41.5449L64.767 41.543C64.77 41.5434 64.7694 41.5433 64.7674 41.5429L64.762 41.5418L63.649 41.4327L62.49 41.3938C62.2251 41.4023 61.9603 41.4071 61.6948 41.4119C61.5714 41.4141 61.4478 41.4163 61.324 41.4189L60.158 41.5142C59.772 41.5706 59.385 41.6251 58.995 41.6759L57.837 41.9022C57.7107 41.9344 57.5843 41.9672 57.4578 42.0001C57.2024 42.0664 56.9464 42.133 56.689 42.195L55.554 42.5499L55.4202 42.6006C55.0937 42.7242 54.7668 42.848 54.436 42.9693L53.337 43.4483C53.0376 43.6022 52.7353 43.7527 52.432 43.9037L52.26 43.9893L51.211 44.593L50.189 45.2551L49.2 45.976L48.2485 46.7534C47.9432 47.0343 47.636 47.3152 47.3263 47.5916C47.5614 47.2481 47.8003 46.9076 48.0397 46.5691L48.8397 45.5923L49.707 44.6726L50.64 43.8106L51.631 43.0113C51.977 42.7636 52.324 42.516 52.676 42.2728L53.769 41.6001C54.145 41.3963 54.526 41.1969 54.907 40.9976L56.083 40.4622C56.346 40.3594 56.6107 40.2602 56.876 40.1607L56.8768 40.1604L56.8775 40.1601L56.8782 40.1598C57.0167 40.1079 57.1553 40.0559 57.294 40.0033L58.536 39.6183C58.9258 39.5195 59.3191 39.4265 59.7126 39.3334L59.7132 39.3333L59.804 39.3118L61.093 39.0867C61.2252 39.072 61.3573 39.0569 61.4896 39.0419C61.7916 39.0075 62.0941 38.973 62.398 38.9425L63.714 38.888L65.035 38.9174L66.311 39.034L67.663 39.2485L68.956 39.5393L70.227 39.918L71.472 40.3725L72.689 40.901L73.869 41.5098L75.011 42.1869L76.114 42.9298C76.3462 43.105 76.5766 43.2835 76.8074 43.4623L76.8078 43.4626L76.8094 43.4638L76.8116 43.4656L76.8117 43.4657C76.9303 43.5575 77.049 43.6494 77.168 43.741L78.172 44.6162L79.12 45.5541L80.009 46.549L80.834 47.6004L81.591 48.7051L81.711 48.9075L82.706 48.8066L83.772 48.7659L84.834 48.7941L85.89 48.8944L86.936 49.058L87.968 49.2843C88.0719 49.3139 88.1757 49.3433 88.2794 49.3726L88.2799 49.3727L88.2855 49.3743L88.2858 49.3744L88.2861 49.3745C88.5186 49.4403 88.7508 49.5059 88.983 49.574L89.976 49.9294L90.943 50.3438L91.883 50.8153C92.1673 50.9772 92.4489 51.145 92.7288 51.3117L92.7296 51.3122L92.79 51.3482L93.659 51.9375L94.49 52.5814C94.753 52.8127 95.016 53.044 95.273 53.2791L96.006 54.0296C96.0323 54.057 96.0381 54.0628 96.0381 54.0628C96.0381 54.0628 96.0306 54.0554 96.037 54.0634L96.042 54.0691L96.052 54.0803L96.073 54.1035L96.111 54.1499L96.189 54.2433L96.347 54.4283L96.66 54.7982C96.879 55.0859 97.093 55.3743 97.304 55.664L97.86 56.5404L98.358 57.4457C98.4526 57.6444 98.5443 57.8439 98.6357 58.0428C98.6874 58.1552 98.739 58.2674 98.791 58.3792L99.161 59.3353L99.2227 59.5281C99.3063 59.7886 99.3896 60.0483 99.469 60.3089L99.712 61.2975L99.892 62.2944L100.003 63.2981C100.008 63.3955 100.012 63.4928 100.017 63.59L100.017 63.5941C100.029 63.831 100.041 64.0673 100.05 64.3024L100.029 65.3036C100.008 65.5698 99.9829 65.8349 99.9578 66.0984L99.9577 66.0993L99.9576 66.0998L99.939 66.2961L99.908 66.493L99.9079 66.4936C99.8667 66.756 99.8258 67.0166 99.781 67.2753L99.7718 67.315L99.7717 67.3154L99.7716 67.3158L99.7715 67.3162C99.6997 67.6252 99.6287 67.9313 99.553 68.2351C99.4876 68.4472 99.4196 68.6573 99.3518 68.8663L99.3517 68.8666L99.3516 68.8669C99.343 68.8936 99.3343 68.9204 99.3256 68.9471C99.1087 70.3277 98.833 71.6998 98.4987 73.0582C98.5734 73.0604 98.6482 73.0626 98.723 73.065C102.017 73.1722 105.307 73.5195 108.541 74.1277C108.714 74.1562 108.887 74.1933 109.059 74.2307L109.146 74.2493L109.748 74.3803L110.963 74.643C111.104 74.6787 111.245 74.7134 111.386 74.7481L111.386 74.7482L111.387 74.7482C111.636 74.8097 111.886 74.8712 112.141 74.9389L112.743 75.0994C112.944 75.1527 113.143 75.2072 113.339 75.2674C114.917 75.732 116.47 76.2655 117.987 76.8855C119.501 77.5055 120.979 78.209 122.405 78.997L122.938 79.2917L123.466 79.5995C123.752 79.7654 124.032 79.9409 124.312 80.1161L124.313 80.1165L124.504 80.2358L124.761 80.3976L125.015 80.5656L125.521 80.9016C125.782 81.0784 126.038 81.2612 126.294 81.4436C126.367 81.496 126.441 81.5484 126.514 81.6006C123.63 80.1386 120.63 78.9776 117.56 78.1375C116.025 77.7162 114.475 77.3664 112.914 77.0968C112.662 77.049 112.412 77.0095 112.162 76.9702L112.162 76.9701C112.026 76.9486 111.889 76.9271 111.753 76.9043C111.51 76.8667 111.26 76.8321 111.01 76.7975L111.009 76.7974L111.009 76.7974C110.859 76.7766 110.708 76.7558 110.56 76.7344L109.389 76.6059L108.799 76.5407L108.69 76.5287C108.53 76.5108 108.37 76.4929 108.209 76.4843C105.058 76.199 101.897 76.1683 98.749 76.3257C98.3498 76.3387 97.9502 76.3639 97.5507 76.3928C97.5003 76.5487 97.449 76.7044 97.397 76.8598C96.9557 78.1783 96.4573 79.4785 95.9036 80.7556C98.2841 80.5198 100.645 80.3865 102.95 80.3694C105.899 80.3449 108.755 80.5236 111.44 80.864C111.621 80.8884 111.801 80.9133 111.98 80.9381L112.28 80.9796L112.439 81.0013L112.586 81.022C112.702 81.0381 112.817 81.054 112.931 81.0703L113.01 81.0836L113.013 81.0841C113.149 81.107 113.284 81.1296 113.42 81.1537L113.8 81.2196L113.803 81.2201C113.997 81.2538 114.191 81.2875 114.383 81.3204C114.467 81.3355 114.552 81.35 114.636 81.3645L114.637 81.3646L114.637 81.3647C114.87 81.4047 115.101 81.4443 115.328 81.4972L115.462 81.5267L115.463 81.5269C116.038 81.6533 116.603 81.7775 117.159 81.8991L117.271 81.9235L117.298 81.9298C117.305 81.9304 117.344 81.9392 117.34 81.9392L117.394 81.953L117.611 82.0069L117.665 82.0205C117.79 82.0517 117.916 82.083 118.04 82.1147C118.321 82.1824 118.617 82.2658 118.903 82.3473C119.192 82.4276 119.476 82.5066 119.752 82.5931C119.851 82.6236 119.95 82.6534 120.048 82.683C120.224 82.736 120.398 82.7886 120.57 82.8445C120.838 82.9329 121.103 83.02 121.365 83.1053C121.556 83.1673 121.743 83.2353 121.927 83.3026L121.928 83.3027L122.047 83.3459L122.134 83.3774C123.143 83.7473 124.089 84.119 124.958 84.5146C126.703 85.2908 128.164 86.0794 129.327 86.7866L130.146 87.2963C130.315 87.4049 130.474 87.5122 130.626 87.6144L130.759 87.7034L130.854 87.7671C131.168 87.9739 131.441 88.1711 131.679 88.3433L131.679 88.3434L131.68 88.3441L131.683 88.346C131.777 88.4139 131.865 88.4779 131.949 88.537C132.147 88.6844 132.312 88.8119 132.444 88.9141C132.505 88.9614 132.559 89.0033 132.606 89.0392C132.754 89.1533 132.831 89.2122 132.831 89.2122C132.831 89.2122 132.478 89.0561 131.819 88.7608L131.607 88.6716C131.499 88.6262 131.384 88.5777 131.263 88.5263L131.149 88.4768C130.978 88.4029 130.795 88.3234 130.598 88.2467C130.357 88.1496 130.097 88.0449 129.821 87.9339C129.543 87.8286 129.248 87.7151 128.937 87.5953C127.687 87.1314 126.156 86.6186 124.38 86.1409C124.072 86.0552 123.754 85.9752 123.43 85.8937L123.43 85.8936C123.289 85.8582 123.148 85.8226 123.005 85.786C122.824 85.7415 122.641 85.6999 122.455 85.6578L122.454 85.6575L122.283 85.6186C122.216 85.6028 122.149 85.5876 122.082 85.5722C122.026 85.5596 121.971 85.547 121.915 85.534C121.842 85.5187 121.77 85.5036 121.697 85.4887C121.674 85.4839 121.65 85.4791 121.627 85.4744C121.598 85.4685 121.569 85.4627 121.54 85.4569L120.776 85.2989L120.465 85.239L120.209 85.1896L119.993 85.1478C119.805 85.1126 119.615 85.0809 119.423 85.0491L119.423 85.049L119.423 85.049L119.297 85.0281L119.189 85.0099C118.926 84.9625 118.663 84.924 118.398 84.8852L118.372 84.8814C118.339 84.8766 118.305 84.8718 118.272 84.8669C118.214 84.8584 118.156 84.8498 118.098 84.8412C117.914 84.8139 117.728 84.7863 117.53 84.7604C117.385 84.7397 117.238 84.7196 117.092 84.7002L116.871 84.6701L116.815 84.6626C116.804 84.6606 116.804 84.6607 116.805 84.6611C116.806 84.6614 116.808 84.6619 116.803 84.6613L116.666 84.6469L116.195 84.5972C115.766 84.552 115.33 84.506 114.89 84.4588C114.536 84.4279 114.178 84.4004 113.817 84.3726L113.817 84.3726L113.816 84.3726C113.563 84.3532 113.309 84.3336 113.053 84.3127L112.891 84.3005C112.789 84.2929 112.687 84.2852 112.584 84.277C112.506 84.2735 112.428 84.2704 112.349 84.2672C112.27 84.264 112.19 84.2608 112.111 84.257C111.796 84.2432 111.477 84.2294 111.156 84.2156C108.592 84.1109 105.885 84.1554 103.091 84.3359C100.296 84.5171 97.414 84.8456 94.49 85.2814C94.186 85.3268 93.8816 85.3733 93.5768 85.4211C93.1916 86.0998 92.7898 86.7694 92.372 87.4292C88.188 94.053 82.374 99.666 75.564 103.642C72.16 105.632 68.512 107.217 64.72 108.344C60.928 109.472 56.994 110.14 53.029 110.33C49.065 110.52 45.075 110.237 41.1648 109.489C37.2553 108.742 33.4273 107.52 29.7967 105.855C26.1649 104.191 22.7306 102.084 19.591 99.594C16.4513 97.105 13.6063 94.237 11.1356 91.067C8.6655 87.8982 6.56959 84.4281 4.91389 80.7518C3.25819 77.0761 2.0426 73.1923 1.311 69.2138C0.577397 65.2353 0.328597 61.1621 0.562397 57.1141C0.794397 53.0679 1.5047 49.038 2.6908 45.1428C3.8763 41.2484 5.5371 37.4912 7.626 33.9829C9.49126 30.8461 11.7065 27.9008 14.199 25.2309C12.4942 24.3575 10.4152 23.3451 10.4152 23.3451C10.2974 23.2894 10.1983 23.2185 10.1206 23.1332C9.9983 22.9991 9.9362 22.8342 9.945 22.6674C9.9551 22.4863 10.0435 22.317 10.2014 22.1759C10.2999 22.0894 10.4227 22.0123 10.5688 21.9477C10.9312 21.7866 11.37 21.7333 11.7136 21.8067L16.9673 22.9433L26.4201 13.7187L10.9763 6.5742L10.9719 6.5729C10.8641 6.5203 10.7738 6.4544 10.7036 6.3767C10.5851 6.2463 10.5256 6.0883 10.5343 5.9215C10.5444 5.7316 10.6409 5.551 10.8114 5.3981C11.9687 4.35563 12.0133 4.32661 12.0296 4.316L12.0296 4.316Z" fill="black"/>
</svg>
