<svg width="480" height="480" viewBox="0 0 480 480" fill="none" xmlns="http://www.w3.org/2000/svg">
<circle cx="240" cy="240" r="52" fill="#EAECF0"/>
<g filter="url(#filter0_dd_12448_49617)">
<path d="M241.6 204C230.827 204 221.298 209.323 215.499 217.483C213.605 217.036 211.63 216.8 209.6 216.8C195.462 216.8 184 228.262 184 242.4C184 256.538 195.462 268 209.6 268L273.6 268C285.971 268 296 257.971 296 245.6C296 233.229 285.971 223.2 273.6 223.2C272.721 223.2 271.854 223.251 271.002 223.349C266.098 211.968 254.78 204 241.6 204Z" fill="#F9FAFB"/>
<ellipse cx="209.6" cy="242.401" rx="25.6" ry="25.6" fill="url(#paint0_linear_12448_49617)"/>
<circle cx="241.6" cy="236" r="32" fill="url(#paint1_linear_12448_49617)"/>
<ellipse cx="273.6" cy="245.599" rx="22.4" ry="22.4" fill="url(#paint2_linear_12448_49617)"/>
</g>
<circle cx="185" cy="207" r="5" fill="#F2F4F7"/>
<circle cx="182" cy="297" r="7" fill="#F2F4F7"/>
<circle cx="309" cy="223" r="7" fill="#F2F4F7"/>
<circle cx="298" cy="196" r="4" fill="#F2F4F7"/>
<g filter="url(#filter1_b_12448_49617)">
<path d="M216 274C216 260.745 226.745 250 240 250V250C253.255 250 264 260.745 264 274V274C264 287.255 253.255 298 240 298V298C226.745 298 216 287.255 216 274V274Z" fill="#344054" fill-opacity="0.4"/>
<path d="M238 270.002C238.176 269.501 238.524 269.079 238.982 268.81C239.439 268.541 239.978 268.443 240.501 268.532C241.024 268.622 241.499 268.894 241.841 269.3C242.183 269.707 242.37 270.221 242.369 270.752C242.369 272.251 240.121 273 240.121 273M240.15 276H240.16M235 280V282.336C235 282.868 235 283.135 235.109 283.272C235.204 283.391 235.348 283.46 235.501 283.46C235.676 283.459 235.884 283.293 236.3 282.96L238.685 281.052C239.173 280.662 239.416 280.467 239.687 280.328C239.928 280.205 240.184 280.116 240.449 280.061C240.748 280 241.06 280 241.684 280H244.2C245.88 280 246.72 280 247.362 279.673C247.926 279.385 248.385 278.926 248.673 278.362C249 277.72 249 276.88 249 275.2V269.8C249 268.12 249 267.28 248.673 266.638C248.385 266.074 247.926 265.615 247.362 265.327C246.72 265 245.88 265 244.2 265H235.8C234.12 265 233.28 265 232.638 265.327C232.074 265.615 231.615 266.074 231.327 266.638C231 267.28 231 268.12 231 269.8V276C231 276.93 231 277.395 231.102 277.776C231.38 278.812 232.188 279.62 233.224 279.898C233.605 280 234.07 280 235 280Z" stroke="white" stroke-width="2" stroke-linecap="round" stroke-linejoin="round"/>
</g>
<mask id="mask0_12448_49617" style="mask-type:alpha" maskUnits="userSpaceOnUse" x="0" y="0" width="480" height="480">
<rect width="480" height="480" fill="url(#paint3_radial_12448_49617)"/>
</mask>
<g mask="url(#mask0_12448_49617)">
<circle cx="240" cy="240" r="47.5" stroke="#EAECF0"/>
<circle cx="240" cy="240" r="79.5" stroke="#EAECF0"/>
<circle cx="240" cy="240" r="111.5" stroke="#EAECF0"/>
<circle cx="240" cy="240" r="143.5" stroke="#EAECF0"/>
<circle cx="240" cy="240" r="143.5" stroke="#EAECF0"/>
<circle cx="240" cy="240" r="175.5" stroke="#EAECF0"/>
<circle cx="240" cy="240" r="207.5" stroke="#EAECF0"/>
<circle cx="240" cy="240" r="239.5" stroke="#EAECF0"/>
</g>
<defs>
<filter id="filter0_dd_12448_49617" x="164" y="204" width="152" height="104" filterUnits="userSpaceOnUse" color-interpolation-filters="sRGB">
<feFlood flood-opacity="0" result="BackgroundImageFix"/>
<feColorMatrix in="SourceAlpha" type="matrix" values="0 0 0 0 0 0 0 0 0 0 0 0 0 0 0 0 0 0 127 0" result="hardAlpha"/>
<feMorphology radius="4" operator="erode" in="SourceAlpha" result="effect1_dropShadow_12448_49617"/>
<feOffset dy="8"/>
<feGaussianBlur stdDeviation="4"/>
<feComposite in2="hardAlpha" operator="out"/>
<feColorMatrix type="matrix" values="0 0 0 0 0.0627451 0 0 0 0 0.0941176 0 0 0 0 0.156863 0 0 0 0.03 0"/>
<feBlend mode="normal" in2="BackgroundImageFix" result="effect1_dropShadow_12448_49617"/>
<feColorMatrix in="SourceAlpha" type="matrix" values="0 0 0 0 0 0 0 0 0 0 0 0 0 0 0 0 0 0 127 0" result="hardAlpha"/>
<feMorphology radius="4" operator="erode" in="SourceAlpha" result="effect2_dropShadow_12448_49617"/>
<feOffset dy="20"/>
<feGaussianBlur stdDeviation="12"/>
<feComposite in2="hardAlpha" operator="out"/>
<feColorMatrix type="matrix" values="0 0 0 0 0.0627451 0 0 0 0 0.0941176 0 0 0 0 0.156863 0 0 0 0.08 0"/>
<feBlend mode="normal" in2="effect1_dropShadow_12448_49617" result="effect2_dropShadow_12448_49617"/>
<feBlend mode="normal" in="SourceGraphic" in2="effect2_dropShadow_12448_49617" result="shape"/>
</filter>
<filter id="filter1_b_12448_49617" x="208" y="242" width="64" height="64" filterUnits="userSpaceOnUse" color-interpolation-filters="sRGB">
<feFlood flood-opacity="0" result="BackgroundImageFix"/>
<feGaussianBlur in="BackgroundImageFix" stdDeviation="4"/>
<feComposite in2="SourceAlpha" operator="in" result="effect1_backgroundBlur_12448_49617"/>
<feBlend mode="normal" in="SourceGraphic" in2="effect1_backgroundBlur_12448_49617" result="shape"/>
</filter>
<linearGradient id="paint0_linear_12448_49617" x1="189.943" y1="225.486" x2="235.2" y2="268.001" gradientUnits="userSpaceOnUse">
<stop stop-color="#D0D5DD"/>
<stop offset="0.350715" stop-color="white" stop-opacity="0"/>
</linearGradient>
<linearGradient id="paint1_linear_12448_49617" x1="217.029" y1="214.857" x2="273.6" y2="268" gradientUnits="userSpaceOnUse">
<stop stop-color="#D0D5DD"/>
<stop offset="0.350715" stop-color="white" stop-opacity="0"/>
</linearGradient>
<linearGradient id="paint2_linear_12448_49617" x1="256.4" y1="230.799" x2="296" y2="267.999" gradientUnits="userSpaceOnUse">
<stop stop-color="#D0D5DD"/>
<stop offset="0.350715" stop-color="white" stop-opacity="0"/>
</linearGradient>
<radialGradient id="paint3_radial_12448_49617" cx="0" cy="0" r="1" gradientUnits="userSpaceOnUse" gradientTransform="translate(240 240) rotate(90) scale(240 240)">
<stop/>
<stop offset="1" stop-opacity="0"/>
</radialGradient>
</defs>
</svg>
