<svg width="36" height="36" viewBox="0 0 36 36" fill="none" xmlns="http://www.w3.org/2000/svg">
<g opacity="0.3">
<path d="M5.66602 18C5.66602 11.1885 11.1878 5.66669 17.9993 5.66669C24.8109 5.66669 30.3327 11.1885 30.3327 18C30.3327 24.8115 24.8109 30.3334 17.9993 30.3334C11.1878 30.3334 5.66602 24.8115 5.66602 18Z" stroke="#0251ED" stroke-width="2"/>
</g>
<g opacity="0.1">
<path d="M1.5 18C1.5 8.8873 8.8873 1.5 18 1.5C27.1127 1.5 34.5 8.8873 34.5 18C34.5 27.1127 27.1127 34.5 18 34.5C8.8873 34.5 1.5 27.1127 1.5 18Z" stroke="#0251ED" stroke-width="2"/>
</g>
<g clip-path="url(#clip0_15669_5892)">
<path d="M17.9993 14.6667V18M17.9993 21.3334H18.0077M26.3327 18C26.3327 22.6024 22.6017 26.3334 17.9993 26.3334C13.397 26.3334 9.66602 22.6024 9.66602 18C9.66602 13.3976 13.397 9.66669 17.9993 9.66669C22.6017 9.66669 26.3327 13.3976 26.3327 18Z" stroke="#0251ED" stroke-width="2" stroke-linecap="round" stroke-linejoin="round"/>
</g>
<defs>
<clipPath id="clip0_15669_5892">
<rect width="20" height="20" fill="white" transform="translate(8 8)"/>
</clipPath>
</defs>
</svg>
