<!-- Generated by IcoMoon.io -->
<svg version="1.1" xmlns="http://www.w3.org/2000/svg" width="32" height="32" viewBox="0 0 32 32">
<title>reports</title>
<path fill="#6d7986" d="M25.286 16.335h-7.505c-0.274 0-0.497 0.215-0.497 0.48s0.222 0.48 0.497 0.48h7.505c0.274 0 0.497-0.215 0.497-0.48s-0.222-0.48-0.497-0.48z"></path>
<path fill="#6d7986" d="M25.286 21.89h-7.505c-0.274 0-0.497 0.215-0.497 0.48s0.222 0.48 0.497 0.48h7.505c0.274 0 0.497-0.215 0.497-0.48s-0.222-0.48-0.497-0.48z"></path>
<path fill="#6d7986" d="M10.001 22.85h5.745c0.274 0 0.497-0.215 0.497-0.48v-5.555c0-0.265-0.223-0.48-0.497-0.48h-5.745c-0.274 0-0.497 0.215-0.497 0.48v5.555c0 0.265 0.222 0.48 0.497 0.48zM10.498 17.295h4.752v4.595h-4.752v-4.595z"></path>
<path fill="#6d7986" d="M27.503 5.333h-20.852c-0.274 0-0.497 0.215-0.497 0.48v2.76h-2.992c-0.274 0-0.497 0.215-0.497 0.48v15.646c0 1.195 1.005 2.167 2.241 2.167h20.852c1.236 0 2.241-0.972 2.241-2.167v-18.886c0-0.265-0.222-0.48-0.497-0.48zM6.155 14.346h-0.751v-1.585h0.75v1.585h0zM3.66 24.7v-15.166h2.495v2.266h-1.247c-0.274 0-0.497 0.215-0.497 0.48v2.546c0 0.265 0.222 0.48 0.497 0.48h1.247v1.817h-1.247c-0.274 0-0.497 0.215-0.497 0.48s0.222 0.48 0.497 0.48h1.247v1.817h-1.247c-0.274 0-0.497 0.215-0.497 0.48s0.222 0.481 0.497 0.481h1.247v1.817h-1.247c-0.274 0-0.497 0.215-0.497 0.48s0.222 0.48 0.497 0.48h1.247v1.060c0 0.665-0.56 1.206-1.247 1.206s-1.247-0.541-1.247-1.206zM27.007 24.7c0 0.665-0.559 1.206-1.247 1.206h-18.991c0.247-0.355 0.38-0.779 0.38-1.206v-18.406h19.858v18.406z"></path>
<path fill="#6d7986" d="M11.921 11.509h10.357c0.275 0 0.497-0.215 0.497-0.48v-2.546c0-0.265-0.222-0.48-0.497-0.48h-10.357c-0.274 0-0.497 0.215-0.497 0.48v2.546c0 0.265 0.222 0.48 0.497 0.48zM12.418 8.963h9.363v1.585h-9.363v-1.585z"></path>
<path fill="#6d7986" d="M10.001 14.402h1.92c0.274 0 0.497-0.215 0.497-0.48s-0.222-0.48-0.497-0.48h-1.92c-0.274 0-0.497 0.215-0.497 0.48s0.222 0.48 0.497 0.48z"></path>
<path fill="#6d7986" d="M14.32 13.655c-0.116-0.168-0.333-0.248-0.535-0.198-0.198 0.049-0.347 0.213-0.371 0.41s0.086 0.393 0.268 0.483c0.185 0.091 0.413 0.059 0.565-0.077 0.176-0.158 0.206-0.425 0.073-0.617z"></path>
<path fill="#6d7986" d="M15.388 13.922c0 0.265 0.222 0.48 0.497 0.48h9.401c0.274 0 0.497-0.215 0.497-0.48s-0.222-0.48-0.497-0.48h-9.401c-0.274 0-0.497 0.215-0.497 0.48z"></path>
<path fill="#6d7986" d="M25.096 20.033c0.191 0.077 0.419 0.028 0.558-0.121s0.168-0.372 0.070-0.549c-0.099-0.179-0.31-0.281-0.517-0.248s-0.376 0.194-0.411 0.396c-0.037 0.217 0.090 0.438 0.301 0.522z"></path>
<path fill="#6d7986" d="M17.781 20.070h5.528c0.274 0 0.497-0.215 0.497-0.48s-0.222-0.48-0.497-0.48h-5.528c-0.274 0-0.497 0.215-0.497 0.48s0.222 0.48 0.497 0.48z"></path>
</svg>
