
<svg width="24" height="24" viewBox="0 0 24 24" fill="none" xmlns="http://www.w3.org/2000/svg">
<path d="M11.955 22C11.4177 22 10.8804 21.8184 10.3431 21.546C9.8058 21.2736 9.53715 20.8195 9.2685 20.2747L8.7312 19.0942C8.64165 18.8218 8.46255 18.6402 8.1939 18.4586C8.0148 18.3678 7.74615 18.277 7.4775 18.277L6.2238 18.4586C5.6865 18.5494 5.1492 18.4586 4.6119 18.1862C4.0746 17.9137 3.7164 17.5505 3.44775 17.0057C3.1791 16.5516 3 15.916 3 15.3712C3 14.8263 3.1791 14.2815 3.5373 13.8275L4.2537 12.7378C4.4328 12.5562 4.52235 12.2838 4.52235 12.0114C4.52235 11.7389 4.4328 11.4665 4.2537 11.2849L3.62685 10.1952C3.26865 9.7412 3.08955 9.19637 3 8.65153C3 8.1067 3.1791 7.47106 3.44775 7.01703C3.7164 6.563 4.16415 6.10897 4.6119 5.83655C5.1492 5.65494 5.6865 5.47333 6.2238 5.56413L7.4775 5.74574C7.74615 5.74574 8.0148 5.74574 8.28345 5.56413C8.5521 5.38252 8.7312 5.20091 8.82075 4.92849L9.35805 3.74801C9.6267 3.20318 9.9849 2.83995 10.4327 2.47673C11.3281 1.84109 12.6714 1.84109 13.5669 2.47673C14.0147 2.74915 14.3729 3.20318 14.6415 3.74801L15.1788 4.92849C15.2684 5.20091 15.4475 5.38252 15.7161 5.56413C15.8952 5.65494 16.1638 5.74574 16.4325 5.74574L17.6862 5.56413C18.2235 5.47333 18.7608 5.56413 19.2981 5.83655C19.8354 6.10897 20.1936 6.47219 20.4622 7.01703C20.7309 7.47106 20.91 8.1067 20.91 8.65153C20.91 9.19637 20.7309 9.7412 20.3727 10.1952L19.6563 11.2849C19.4772 11.4665 19.3876 11.7389 19.3876 12.0114C19.3876 12.2838 19.4772 12.5562 19.6563 12.7378L20.3727 13.8275C20.7309 14.2815 20.91 14.8263 20.91 15.3712C20.91 15.916 20.8204 16.4608 20.5518 17.0057C20.2831 17.4597 19.8354 17.9137 19.3876 18.1862C18.9399 18.4586 18.3131 18.5494 17.7758 18.4586L16.4325 18.277C16.1638 18.277 15.8952 18.277 15.6266 18.4586C15.3579 18.6402 15.1788 18.8218 15.0892 19.0942L14.5519 20.2747C14.2833 20.8195 13.9251 21.1827 13.4774 21.546C13.0296 21.8184 12.4923 22 11.955 22ZM7.6566 16.4608C8.1939 16.4608 8.7312 16.6425 9.17895 16.9149C9.71625 17.2781 10.164 17.7321 10.4327 18.3678L10.9699 19.5482C11.0595 19.7299 11.149 19.9115 11.3281 20.0023C11.6863 20.2747 12.1341 20.2747 12.4923 20.0023C12.6714 19.9115 12.8505 19.7299 12.8505 19.5482L13.3878 18.3678C13.6565 17.7321 14.1042 17.2781 14.6415 16.9149C15.1788 16.5516 15.8057 16.4608 16.5221 16.5516L17.7758 16.7333C17.9549 16.7333 18.2235 16.7333 18.4026 16.6425C18.5817 16.5516 18.7608 16.37 18.8504 16.1884C18.9399 16.0068 19.0294 15.8252 19.0294 15.5528C19.0294 15.3712 18.9399 15.0988 18.8504 15.0079L18.1339 13.8275C17.7758 13.2826 17.5071 12.647 17.5071 12.0114C17.5071 11.3757 17.6862 10.7401 18.1339 10.1952L18.8504 9.10556C18.9399 8.92395 19.0294 8.74234 19.0294 8.56073C19.0294 8.37911 19.0295 8.1067 18.8504 7.92509C18.7608 7.74347 18.5817 7.56186 18.4026 7.47106C18.2235 7.38025 18.0444 7.38025 17.7758 7.38025L16.5221 7.56186C15.8952 7.65267 15.2683 7.47106 14.6415 7.19864C14.1938 6.74461 13.746 6.29058 13.4774 5.65494L12.9401 4.47446C12.8505 4.29285 12.6714 4.11124 12.5819 4.02043C12.2236 3.74801 11.7759 3.74801 11.4177 4.02043C11.2386 4.11124 11.0595 4.29285 11.0595 4.47446L10.4327 5.65494C10.164 6.29058 9.71625 6.74461 9.17895 7.10783C8.64165 7.47106 7.92525 7.56186 7.2984 7.56186L6.0447 7.38025C5.8656 7.38025 5.59695 7.38025 5.41785 7.47106C5.23875 7.56186 5.05965 7.74347 4.9701 7.92509C4.88055 8.1067 4.791 8.28831 4.791 8.56073C4.791 8.83314 4.88055 9.01476 4.9701 9.10556L5.77605 10.1952C6.13425 10.7401 6.4029 11.3757 6.4029 12.0114C6.4029 12.647 6.2238 13.2826 5.77605 13.8275L5.05965 14.9171C4.9701 15.0988 4.88055 15.2804 4.88055 15.462C4.88055 15.6436 4.88055 15.916 5.05965 16.0976C5.1492 16.2792 5.3283 16.4608 5.5074 16.5516C5.6865 16.6425 5.8656 16.6425 6.13425 16.6425L7.38795 16.4608C7.38795 16.4608 7.56705 16.4608 7.6566 16.4608Z" fill="currentColor"/>
<path d="M11.9549 15.8252C9.8953 15.8252 8.19385 14.0999 8.19385 12.0114C8.19385 9.92282 9.8953 8.19751 11.9549 8.19751C14.0146 8.19751 15.716 9.92282 15.716 12.0114C15.716 14.0999 14.0146 15.8252 11.9549 15.8252ZM11.9549 10.0136C10.8803 10.0136 9.98485 10.9217 9.98485 12.0114C9.98485 13.101 10.8803 14.0091 11.9549 14.0091C13.0295 14.0091 13.925 13.101 13.925 12.0114C13.925 10.9217 13.0295 10.0136 11.9549 10.0136Z" fill="currentColor"/>
</svg>
