<svg width="32" height="33" viewBox="0 0 32 33" fill="none" xmlns="http://www.w3.org/2000/svg">
<path d="M23.1109 25.388H21.3331V23.6102C21.3331 22.903 21.0522 22.2247 20.5521 21.7246C20.052 21.2245 19.3737 20.9436 18.6664 20.9436H13.3331C12.6259 20.9436 11.9476 21.2245 11.4475 21.7246C10.9474 22.2247 10.6664 22.903 10.6664 23.6102V25.388H8.88867V23.6102C8.88867 22.4315 9.35692 21.301 10.1904 20.4675C11.0239 19.634 12.1544 19.1658 13.3331 19.1658H18.6664C19.8452 19.1658 20.9757 19.634 21.8091 20.4675C22.6426 21.301 23.1109 22.4315 23.1109 23.6102V25.388ZM15.9998 17.388C15.2994 17.388 14.6059 17.2501 13.9588 16.982C13.3117 16.714 12.7238 16.3212 12.2285 15.8259C11.7333 15.3307 11.3405 14.7427 11.0724 14.0957C10.8044 13.4486 10.6664 12.7551 10.6664 12.0547C10.6664 11.3543 10.8044 10.6608 11.0724 10.0137C11.3405 9.36664 11.7333 8.7787 12.2285 8.28345C12.7238 7.7882 13.3117 7.39535 13.9588 7.12733C14.6059 6.8593 15.2994 6.72135 15.9998 6.72135C17.4143 6.72135 18.7708 7.28326 19.771 8.28345C20.7712 9.28364 21.3331 10.6402 21.3331 12.0547C21.3331 13.4692 20.7712 14.8257 19.771 15.8259C18.7708 16.8261 17.4143 17.388 15.9998 17.388V17.388ZM15.9998 15.6102C16.9428 15.6102 17.8471 15.2356 18.5139 14.5688C19.1807 13.902 19.5553 12.9977 19.5553 12.0547C19.5553 11.1117 19.1807 10.2073 18.5139 9.54053C17.8471 8.87373 16.9428 8.49913 15.9998 8.49913C15.0568 8.49913 14.1524 8.87373 13.4856 9.54053C12.8188 10.2073 12.4442 11.1117 12.4442 12.0547C12.4442 12.9977 12.8188 13.902 13.4856 14.5688C14.1524 15.2356 15.0568 15.6102 15.9998 15.6102V15.6102Z" fill="#6d7986"/>
</svg>
