<svg width="36" height="36" viewBox="0 0 36 36" fill="none" xmlns="http://www.w3.org/2000/svg">
<g opacity="0.3">
<path d="M5.50033 18.0003C5.50033 11.0968 11.0968 5.50033 18.0003 5.50033C24.9039 5.50033 30.5003 11.0968 30.5003 18.0003C30.5003 24.9039 24.9039 30.5003 18.0003 30.5003C11.0968 30.5003 5.50033 24.9039 5.50033 18.0003Z" stroke="#DC6803" stroke-width="1.66667"/>
</g>
<g opacity="0.1">
<path d="M1.33333 18C1.33333 8.79525 8.79525 1.33333 18 1.33333C27.2047 1.33333 34.6667 8.79525 34.6667 18C34.6667 27.2047 27.2047 34.6667 18 34.6667C8.79525 34.6667 1.33333 27.2047 1.33333 18Z" stroke="#DC6803" stroke-width="1.66667"/>
</g>
<g clip-path="url(#clip0_9176_23219)">
<path d="M18.0003 14.667V18.0003M18.0003 21.3337H18.0087M26.3337 18.0003C26.3337 22.6027 22.6027 26.3337 18.0003 26.3337C13.398 26.3337 9.66699 22.6027 9.66699 18.0003C9.66699 13.398 13.398 9.66699 18.0003 9.66699C22.6027 9.66699 26.3337 13.398 26.3337 18.0003Z" stroke="#DC6803" stroke-width="1.66667" stroke-linecap="round" stroke-linejoin="round"/>
</g>
<defs>
<clipPath id="clip0_9176_23219">
<rect width="20" height="20" fill="white" transform="translate(8 8)"/>
</clipPath>
</defs>
</svg>
