<svg width="16" height="16" viewBox="0 0 16 16" fill="none" xmlns="http://www.w3.org/2000/svg">
<g clip-path="url(#clip0_12651_163588)">
<path fill-rule="evenodd" clip-rule="evenodd" d="M3.44105 0.666016L8.02141 0.666016C8.31384 0.666008 8.56617 0.666001 8.775 0.68025C8.99489 0.695253 9.21483 0.728255 9.43212 0.818258C9.92217 1.02125 10.3115 1.41059 10.5145 1.90065C10.6045 2.11794 10.6375 2.33788 10.6525 2.55776C10.6668 2.7666 10.6668 3.01892 10.6667 3.31136V3.33268C10.6667 3.70087 10.3683 3.99935 10.0001 3.99935C9.63189 3.99935 9.33342 3.70087 9.33342 3.33268C9.33342 3.01293 9.33306 2.80651 9.32228 2.64852C9.3119 2.49652 9.29416 2.43864 9.28267 2.41089C9.21501 2.24754 9.08522 2.11776 8.92187 2.0501C8.89413 2.03861 8.83624 2.02086 8.68424 2.01049C8.52626 1.99971 8.31983 1.99935 8.00008 1.99935H3.46675C3.08238 1.99935 2.8342 1.99987 2.64531 2.0153C2.4642 2.0301 2.39705 2.05522 2.36409 2.07201C2.23865 2.13593 2.13666 2.23792 2.07274 2.36336C2.05595 2.39632 2.03083 2.46347 2.01603 2.64457C2.0006 2.83347 2.00008 3.08165 2.00008 3.46602V7.99935C2.00008 8.3191 2.00044 8.52552 2.01122 8.68351C2.02159 8.83551 2.03934 8.8934 2.05083 8.92114C2.11849 9.08449 2.24828 9.21427 2.41163 9.28194C2.43937 9.29343 2.49726 9.31117 2.64926 9.32154C2.80724 9.33232 3.01367 9.33268 3.33342 9.33268C3.70161 9.33268 4.00008 9.63116 4.00008 9.99935C4.00008 10.3675 3.70161 10.666 3.33342 10.666H3.31209C3.01966 10.666 2.76733 10.666 2.55849 10.6518C2.33861 10.6368 2.11867 10.6038 1.90138 10.5138C1.41133 10.3108 1.02198 9.92144 0.81899 9.43138C0.728988 9.2141 0.695985 8.99416 0.680982 8.77427C0.666733 8.56543 0.666741 8.31311 0.666749 8.02067L0.666749 3.44032C0.666737 3.08889 0.666726 2.78571 0.687129 2.536C0.708663 2.27243 0.756207 2.01029 0.884736 1.75804C1.07648 1.38171 1.38244 1.07575 1.75877 0.884004C2.01102 0.755474 2.27317 0.70793 2.53673 0.686396C2.78645 0.665994 3.08962 0.666004 3.44105 0.666016ZM8.10772 5.33268H12.5591C12.9105 5.33267 13.2137 5.33266 13.4634 5.35306C13.727 5.3746 13.9891 5.42214 14.2414 5.55067C14.6177 5.74242 14.9237 6.04838 15.1154 6.4247C15.244 6.67696 15.2915 6.9391 15.313 7.20266C15.3334 7.45238 15.3334 7.75555 15.3334 8.10697V12.5584C15.3334 12.9098 15.3334 13.213 15.313 13.4627C15.2915 13.7263 15.244 13.9884 15.1154 14.2407C14.9237 14.617 14.6177 14.9229 14.2414 15.1147C13.9891 15.2432 13.727 15.2908 13.4634 15.3123C13.2137 15.3327 12.9106 15.3327 12.5591 15.3327H8.10771C7.75628 15.3327 7.45311 15.3327 7.2034 15.3123C6.93983 15.2908 6.67769 15.2432 6.42544 15.1147C6.04911 14.923 5.74315 14.617 5.5514 14.2407C5.42287 13.9884 5.37533 13.7263 5.3538 13.4627C5.33339 13.213 5.3334 12.9098 5.33342 12.5584V8.10699C5.3334 7.75556 5.33339 7.45238 5.3538 7.20266C5.37533 6.9391 5.42287 6.67696 5.5514 6.4247C5.74315 6.04838 6.04911 5.74242 6.42544 5.55067C6.67769 5.42214 6.93983 5.3746 7.2034 5.35306C7.45311 5.33266 7.75629 5.33267 8.10772 5.33268ZM7.31197 6.68197C7.13086 6.69677 7.06372 6.72188 7.03076 6.73868C6.90531 6.8026 6.80333 6.90458 6.73941 7.03002C6.72262 7.06299 6.6975 7.13013 6.6827 7.31124C6.66727 7.50013 6.66675 7.74831 6.66675 8.13268V12.5327C6.66675 12.9171 6.66727 13.1652 6.6827 13.3541C6.6975 13.5352 6.72262 13.6024 6.73941 13.6353C6.80333 13.7608 6.90531 13.8628 7.03076 13.9267C7.06372 13.9435 7.13086 13.9686 7.31197 13.9834C7.50086 13.9988 7.74905 13.9994 8.13342 13.9994H12.5334C12.9178 13.9994 13.166 13.9988 13.3549 13.9834C13.536 13.9686 13.6031 13.9435 13.6361 13.9267C13.7615 13.8628 13.8635 13.7608 13.9274 13.6353C13.9442 13.6024 13.9693 13.5352 13.9841 13.3541C13.9996 13.1652 14.0001 12.9171 14.0001 12.5327V8.13268C14.0001 7.74831 13.9996 7.50013 13.9841 7.31124C13.9693 7.13013 13.9442 7.06299 13.9274 7.03002C13.8635 6.90458 13.7615 6.80259 13.6361 6.73868C13.6031 6.72188 13.536 6.69677 13.3549 6.68197C13.166 6.66654 12.9178 6.66602 12.5334 6.66602H8.13342C7.74905 6.66602 7.50086 6.66654 7.31197 6.68197Z" fill="currentColor"/>
</g>
<defs>
<clipPath id="clip0_12651_163588">
<rect width="16" height="16" fill="white"/>
</clipPath>
</defs>
</svg>
