<svg width="20" height="20" viewBox="0 0 20 20" fill="none" xmlns="http://www.w3.org/2000/svg">
<g clip-path="url(#clip0_11964_12862)">
<path fill-rule="evenodd" clip-rule="evenodd" d="M10.0002 2.50065C5.85803 2.50065 2.50016 5.85851 2.50016 10.0007C2.50016 14.1428 5.85803 17.5006 10.0002 17.5006C14.1423 17.5006 17.5002 14.1428 17.5002 10.0007C17.5002 5.85851 14.1423 2.50065 10.0002 2.50065ZM0.833496 10.0007C0.833496 4.93804 4.93755 0.833984 10.0002 0.833984C15.0628 0.833984 19.1668 4.93804 19.1668 10.0007C19.1668 15.0633 15.0628 19.1673 10.0002 19.1673C4.93755 19.1673 0.833496 15.0633 0.833496 10.0007ZM6.25016 7.50065C6.25016 6.81029 6.80981 6.25065 7.50016 6.25065C8.19052 6.25065 8.75016 6.81029 8.75016 7.50065C8.75016 8.19101 8.19052 8.75065 7.50016 8.75065C6.80981 8.75065 6.25016 8.19101 6.25016 7.50065ZM11.2502 7.50065C11.2502 6.81029 11.8098 6.25065 12.5002 6.25065C13.1905 6.25065 13.7502 6.81029 13.7502 7.50065C13.7502 8.19101 13.1905 8.75065 12.5002 8.75065C11.8098 8.75065 11.2502 8.19101 11.2502 7.50065ZM5.8335 12.5007C5.8335 12.0404 6.20659 11.6673 6.66683 11.6673H13.3335C13.7937 11.6673 14.1668 12.0404 14.1668 12.5007C14.1668 12.9609 13.7937 13.334 13.3335 13.334H6.66683C6.20659 13.334 5.8335 12.9609 5.8335 12.5007Z" fill="currentColor"/>
</g>
<defs>
<clipPath id="clip0_11964_12862">
<rect width="20" height="20" fill="white"/>
</clipPath>
</defs>
</svg>
