
<svg width="21" height="20" viewBox="0 0 21 20" fill="none" xmlns="http://www.w3.org/2000/svg">
<path d="M3.488 4.72239C2.85772 4.01796 2.54257 3.66574 2.53069 3.3664C2.52036 3.10636 2.63211 2.85643 2.83278 2.69074C3.06379 2.5 3.53641 2.5 4.48166 2.5H16.8508C17.796 2.5 18.2686 2.5 18.4996 2.69074C18.7003 2.85643 18.8121 3.10636 18.8017 3.3664C18.7898 3.66574 18.4747 4.01796 17.8444 4.72239L13.0892 10.037C12.9636 10.1774 12.9008 10.2477 12.856 10.3276C12.8162 10.3984 12.7871 10.4747 12.7694 10.554C12.7495 10.6435 12.7495 10.7377 12.7495 10.9261V15.382C12.7495 15.5449 12.7495 15.6264 12.7233 15.6969C12.7 15.7591 12.6623 15.8149 12.6131 15.8596C12.5574 15.9102 12.4818 15.9404 12.3305 16.001L9.49714 17.1343C9.19085 17.2568 9.03771 17.3181 8.91477 17.2925C8.80727 17.2702 8.71292 17.2063 8.65225 17.1148C8.58288 17.0101 8.58288 16.8452 8.58288 16.5153V10.9261C8.58288 10.7377 8.58288 10.6435 8.56298 10.554C8.54533 10.4747 8.51618 10.3984 8.47645 10.3276C8.43166 10.2477 8.36884 10.1774 8.2432 10.037L3.488 4.72239Z" stroke="currentColor" stroke-width="2" stroke-linecap="round" stroke-linejoin="round"/>
</svg>
