<svg width="20" height="12" viewBox="0 0 20 12" fill="none" xmlns="http://www.w3.org/2000/svg">
<path d="M1.96883 7.13499V0.87799C1.96883 0.44487 1.61771 0.09375 1.18463 0.09375C0.751511 0.09375 0.400391 0.44487 0.400391 0.87799V11.1228C0.400391 11.5559 0.751511 11.907 1.18463 11.907C1.61775 11.907 1.96883 11.5559 1.96883 11.1228V9.65359L18.032 9.61583V11.085C18.032 11.5181 18.3831 11.8693 18.8162 11.8693C19.2493 11.8693 19.6004 11.5181 19.6004 11.085V9.61579V7.56439V7.09719L1.96883 7.13499Z" fill="currentColor"/>
<path d="M19.6014 6.46402H7.67969V3.50898C7.67969 2.65294 8.37365 1.95898 9.22969 1.95898H16.4722C18.2004 1.95898 19.6014 3.35994 19.6014 5.08814V6.46402Z" fill="currentColor"/>
<path d="M4.88746 6.12647C5.94497 6.12647 6.80226 5.26919 6.80226 4.21167C6.80226 3.15416 5.94497 2.29688 4.88746 2.29688C3.82994 2.29688 2.97266 3.15416 2.97266 4.21167C2.97266 5.26919 3.82994 6.12647 4.88746 6.12647Z" fill="currentColor"/>
</svg>
