<svg width="20" height="20" viewBox="0 0 20 20" fill="none" xmlns="http://www.w3.org/2000/svg">
<path d="M17.5007 17.5H10.834M2.08398 17.9167L6.70838 16.1381C7.00416 16.0243 7.15205 15.9674 7.29042 15.8931C7.41332 15.8272 7.53048 15.751 7.64068 15.6655C7.76475 15.5692 7.8768 15.4572 8.10088 15.2331L17.5007 5.83334C18.4211 4.91286 18.4211 3.42048 17.5007 2.5C16.5802 1.57953 15.0878 1.57953 14.1673 2.5L4.76755 11.8998C4.54346 12.1239 4.43142 12.2359 4.33514 12.36C4.24963 12.4702 4.17349 12.5873 4.10751 12.7102C4.03324 12.8486 3.97636 12.9965 3.86259 13.2923L2.08398 17.9167ZM2.08398 17.9167L3.79908 13.4575C3.92182 13.1384 3.98318 12.9788 4.08843 12.9057C4.18042 12.8419 4.29424 12.8177 4.40423 12.8387C4.5301 12.8628 4.65097 12.9836 4.89272 13.2254L6.7753 15.108C7.01704 15.3497 7.13792 15.4706 7.16196 15.5964C7.18296 15.7064 7.15881 15.8203 7.09494 15.9122C7.02186 16.0175 6.86231 16.0789 6.54321 16.2016L2.08398 17.9167Z" stroke="#344054" stroke-width="1.66667" stroke-linecap="round" stroke-linejoin="round"/>
</svg>
