<svg width="20" height="20" viewBox="0 0 20 20" fill="none" xmlns="http://www.w3.org/2000/svg">
<path fill-rule="evenodd" clip-rule="evenodd" d="M16.6932 2.52059C16.4571 2.5013 16.1469 2.50065 15.6664 2.50065H14.9998V10.0006C15.011 10.0006 15.022 10.0007 15.0329 10.0007H15.6664C16.1469 10.0007 16.4571 10 16.6932 9.98071C16.9196 9.96222 17.0036 9.93082 17.0448 9.90982C17.2016 9.82993 17.329 9.70245 17.4089 9.54564C17.4299 9.50444 17.4613 9.42051 17.4798 9.19412C17.4991 8.95801 17.4998 8.64778 17.4998 8.16732V4.33399C17.4998 3.85352 17.4991 3.5433 17.4798 3.30718C17.4613 3.0808 17.4299 2.99686 17.4089 2.95566C17.329 2.79886 17.2016 2.67138 17.0448 2.59148C17.0036 2.57049 16.9196 2.53909 16.6932 2.52059ZM13.3331 10.7321V2.50065H6.76478C6.1432 2.50065 5.72343 2.50121 5.39641 2.52611C5.07981 2.55021 4.91225 2.59384 4.79002 2.64923C4.50103 2.78017 4.25542 2.99089 4.08205 3.25661C4.00873 3.36899 3.94012 3.52797 3.86816 3.83722C3.79383 4.15666 3.72945 4.57145 3.63493 5.1858L3.19903 8.01914C3.07466 8.82755 2.9902 9.38131 2.96154 9.81119C2.93341 10.2331 2.96719 10.4477 3.02322 10.5946C3.16108 10.956 3.42036 11.2583 3.75662 11.4495C3.89331 11.5272 4.10029 11.5932 4.52155 11.6296C4.95079 11.6666 5.51095 11.6673 6.32888 11.6673L7.02633 11.6673C7.23666 11.6673 7.44149 11.6673 7.61496 11.6814C7.80545 11.697 8.03023 11.7337 8.25642 11.849C8.57002 12.0088 8.82499 12.2637 8.98478 12.5773C9.10002 12.8035 9.13675 13.0283 9.15231 13.2188C9.16648 13.3923 9.16646 13.5971 9.16643 13.8074L9.16643 16.2791C9.16643 16.9218 9.66282 17.4486 10.2931 17.497L13.053 11.2874C13.0617 11.2677 13.0706 11.2475 13.0798 11.2267C13.1462 11.0757 13.2242 10.8982 13.3331 10.7321ZM15.6986 0.833985C16.1378 0.83397 16.5168 0.833957 16.829 0.85946C17.1584 0.886378 17.4861 0.945808 17.8014 1.10647C18.2718 1.34615 18.6543 1.7286 18.8939 2.19901C19.0546 2.51433 19.114 2.84201 19.141 3.17146C19.1665 3.4836 19.1664 3.86256 19.1664 4.30185V8.19946C19.1664 8.63874 19.1665 9.0177 19.141 9.32984C19.114 9.6593 19.0546 9.98698 18.8939 10.3023C18.6543 10.7727 18.2718 11.1552 17.8014 11.3948C17.4861 11.5555 17.1584 11.6149 16.829 11.6418C16.5168 11.6673 16.1378 11.6673 15.6985 11.6673H15.0329C14.8656 11.6673 14.7792 11.6677 14.7166 11.6718C14.7147 11.6719 14.7129 11.672 14.7111 11.6721C14.7103 11.6737 14.7094 11.6753 14.7085 11.677C14.6794 11.7325 14.644 11.8114 14.576 11.9642L11.7754 18.2657C11.5317 18.814 10.988 19.1673 10.388 19.1673C8.79286 19.1673 7.49977 17.8742 7.49977 16.2791V13.834C7.49977 13.5869 7.49912 13.4517 7.49118 13.3545C7.49086 13.3506 7.49054 13.347 7.49023 13.3435C7.48677 13.3432 7.48311 13.3429 7.47924 13.3426C7.38208 13.3346 7.24687 13.334 6.99977 13.334H6.29158C5.52011 13.334 4.88769 13.334 4.37828 13.2901C3.85271 13.2447 3.37077 13.1473 2.93278 12.8983C2.26025 12.5159 1.74169 11.9114 1.46598 11.1886C1.28642 10.7178 1.26347 10.2267 1.29857 9.7003C1.33258 9.19013 1.42876 8.56507 1.54608 7.80257L1.99241 4.9014C2.08094 4.32586 2.15445 3.84803 2.24486 3.45949C2.33926 3.05381 2.46448 2.68574 2.68621 2.34589C3.03294 1.81445 3.52416 1.39303 4.10215 1.13113C4.47175 0.963658 4.85459 0.895862 5.2699 0.864248C5.66767 0.833968 6.15113 0.833976 6.73343 0.833985L15.6986 0.833985Z" fill="currentColor"/>
</svg>
