<svg width="20" height="20" viewBox="0 0 20 20" fill="none" xmlns="http://www.w3.org/2000/svg">
<path fill-rule="evenodd" clip-rule="evenodd" d="M8.22429 1.73564C8.46798 1.18734 9.01171 0.833984 9.61172 0.833984C11.2068 0.833984 12.4999 2.12708 12.4999 3.72218V6.66732H15.4192C17.4622 6.66732 19.0244 8.48831 18.7138 10.5075L17.8164 16.3408C17.5662 17.9669 16.167 19.1673 14.5218 19.1673H3.33325C1.95254 19.1673 0.833252 18.048 0.833252 16.6673V10.834C0.833252 9.45327 1.95254 8.33398 3.33325 8.33398H5.29169L8.22429 1.73564ZM6.66658 17.5006H14.5218C15.3444 17.5006 16.044 16.9005 16.1691 16.0874L17.0665 10.2541C17.2218 9.24448 16.4407 8.33398 15.4192 8.33398H12.4999C11.5794 8.33398 10.8333 7.58779 10.8333 6.66732V3.72218C10.8333 3.07946 10.3369 2.55267 9.70653 2.50428L6.81471 9.01088C6.773 9.10472 6.72329 9.19336 6.66658 9.27614V17.5006ZM4.99992 10.0007V17.5006H3.33325C2.87301 17.5006 2.49992 17.1276 2.49992 16.6673V10.834C2.49992 10.3737 2.87301 10.0007 3.33325 10.0007H4.99992Z" fill="currentColor"/>
</svg>
